HIERARCHY
ROOT Hips
{
	OFFSET 0.000000 88.474243 0.000000
	CHANNELS 6 Xposition Yposition Zposition Zrotation Yrotation Xrotation 
	JOINT Hips_Spine
	{
		OFFSET 0.000000 0.000000 0.000000
		CHANNELS 3 Zrotation Yrotation Xrotation
		JOINT Spine
		{
			OFFSET 0.005100 8.711998 -0.691000
			CHANNELS 3 Zrotation Yrotation Xrotation
			JOINT Spine1
			{
				OFFSET -0.009200 8.660301 -1.275000
				CHANNELS 3 Zrotation Yrotation Xrotation
				JOINT Spine2
				{
					OFFSET 0.006300 9.852501 -1.857000
					CHANNELS 3 Zrotation Yrotation Xrotation
					JOINT Spine2_Neck
					{
						OFFSET 0.000000 0.000000 0.000000
						CHANNELS 3 Zrotation Yrotation Xrotation
						JOINT Neck
						{
							OFFSET 0.016300 11.420799 -0.263300
							CHANNELS 3 Zrotation Yrotation Xrotation
							End Site #name: Head
							{
								OFFSET -0.019200 9.262405 2.362500
							}
						}
					}
					JOINT Spine2_LeftShoulder
					{
						OFFSET 0.000000 0.000000 0.000000
						CHANNELS 3 Zrotation Yrotation Xrotation
						JOINT LeftShoulder
						{
							OFFSET 5.616900 6.732201 -0.345700
							CHANNELS 3 Zrotation Yrotation Xrotation
							JOINT LeftArm
							{
								OFFSET 10.664888 -0.183372 -2.440700
								CHANNELS 3 Zrotation Yrotation Xrotation
								JOINT LeftForeArm
								{
									OFFSET 27.459126 0.000000 0.000000
									CHANNELS 3 Zrotation Yrotation Xrotation
									End Site #name: LeftHand
									{
										OFFSET 21.306858 0.000000 0.000000
									}
								}
							}
						}
					}
					JOINT Spine2_RightShoulder
					{
						OFFSET 0.000000 0.000000 0.000000
						CHANNELS 3 Zrotation Yrotation Xrotation
						JOINT RightShoulder
						{
							OFFSET -5.580300 6.737503 -0.344400
							CHANNELS 3 Zrotation Yrotation Xrotation
							JOINT RightArm
							{
								OFFSET -10.679335 -0.188484 -2.383900
								CHANNELS 3 Zrotation Yrotation Xrotation
								JOINT RightForeArm
								{
									OFFSET -27.503529 0.000000 0.000000
									CHANNELS 3 Zrotation Yrotation Xrotation
									End Site #name: RightHand
									{
										OFFSET -21.306808 0.000000 0.000000
									}
								}
							}
						}
					}
				}
			}
		}
	}
	JOINT Hips_LeftUpLeg
	{
		OFFSET 0.000000 0.000000 0.000000
		CHANNELS 3 Zrotation Yrotation Xrotation
		JOINT LeftUpLeg
		{
			OFFSET 6.857700 -6.739601 0.312100
			CHANNELS 3 Zrotation Yrotation Xrotation
			JOINT LeftLeg
			{
				OFFSET -0.367590 -34.731552 -4.572400
				CHANNELS 3 Zrotation Yrotation Xrotation
				End Site #name: LeftFoot
				{
					OFFSET 0.367590 -34.656704 -6.067400
				}
			}
		}
	}
	JOINT Hips_RightUpLeg
	{
		OFFSET 0.000000 0.000000 0.000000
		CHANNELS 3 Zrotation Yrotation Xrotation
		JOINT RightUpLeg
		{
			OFFSET -6.876100 -6.733299 0.301000
			CHANNELS 3 Zrotation Yrotation Xrotation
			JOINT RightLeg
			{
				OFFSET 0.347353 -34.795158 -4.515900
				CHANNELS 3 Zrotation Yrotation Xrotation
				End Site #name: RightFoot
				{
					OFFSET -0.347353 -34.589367 -6.070300
				}
			}
		}
	}
}
MOTION
Frames: 7
Frame Time: 0.041667
0.020717 0.017846 -0.026401 -3.854699 -0.439888 -3.904075 0.000000 0.000000 0.000000 2.192102 1.805802 17.200193 0.767969 1.310662 2.216760 0.000000 0.000000 0.000000 0.844912 1.072165 0.815263 1.969586 -0.547826 5.893668 0.776162 0.354523 2.722826 -10.151519 -9.043808 1.953594 -60.944984 3.509499 9.487841 0.487870 -21.639287 -0.151081 1.527795 0.815152 2.717786 7.894729 -4.777820 0.406044 69.329404 5.584414 31.868722 0.024579 32.262374 1.021403 0.000000 0.000000 0.000000 7.197132 9.526063 -68.915140 6.134558 -4.956828 66.451736 0.000000 0.000000 0.000000 -5.742585 -7.025601 -57.883734 -1.177781 -0.638714 64.192272 
0.018689 0.046147 -0.108551 -3.623234 0.593481 -2.110660 0.000000 0.000000 0.000000 1.543824 0.528880 14.142210 0.652033 0.519572 2.077011 0.000000 0.000000 0.000000 0.792412 0.623027 1.592160 1.533005 -0.599638 5.164758 0.913951 0.747830 2.260370 -9.004641 -5.157575 0.454980 -65.064230 -0.000044 6.421278 0.040646 -26.205567 0.882095 0.475570 0.585045 2.071512 7.604173 -4.674043 0.210758 69.937167 9.227273 23.571650 0.197033 34.329191 0.614108 0.000000 0.000000 -0.000000 6.989274 9.614599 -70.141989 6.197345 -4.359560 64.755884 0.000000 0.000000 0.000000 -5.029478 -7.876224 -61.776968 -0.584047 -0.497702 64.875921 
0.003827 0.031613 -0.168042 -3.215617 1.570124 -1.261331 0.000000 0.000000 -0.000000 2.578334 0.684541 15.276764 0.510118 0.556672 1.880499 0.000000 0.000000 0.000000 0.610326 0.455333 1.478399 1.824245 0.165173 4.471719 0.804022 0.691583 1.836374 -9.532561 -4.273582 0.122946 -63.984708 0.508581 8.584171 0.073625 -27.076172 0.803451 0.462078 0.624841 2.020850 6.835763 -4.677909 0.108348 69.372265 10.700511 22.498742 0.228200 36.486434 0.267164 -0.000000 0.000000 -0.000000 6.883162 8.961899 -70.758507 5.614561 -4.862471 63.950162 0.000000 0.000000 0.000000 -5.796149 -7.370865 -63.086425 -0.605223 -0.580112 66.028688 
-0.007845 0.009175 -0.229155 -3.248974 1.760956 -1.119505 0.000000 0.000000 -0.000000 2.745146 1.102154 15.951008 0.485070 0.520760 2.173604 0.000000 0.000000 0.000000 0.689441 0.505992 1.434138 1.459569 0.175886 5.231374 0.739465 0.588742 1.781556 -8.397102 -3.223963 -0.100155 -65.152195 -1.436752 6.279547 0.056029 -27.440962 0.809518 0.555015 0.632102 2.205666 6.747782 -5.271573 -0.026670 71.216553 12.429033 21.512504 0.140551 40.424864 0.104463 -0.000000 0.000000 -0.000000 6.894349 8.718797 -70.081044 5.532748 -4.949297 62.792664 0.000000 0.000000 0.000000 -5.802582 -7.645866 -63.817101 -0.148901 -0.439713 67.058829 
-0.012638 -0.003758 -0.286372 -3.249014 1.869874 -1.200382 -0.000000 0.000000 -0.000000 2.687870 1.436638 16.771049 0.434523 0.505670 2.371099 0.000000 0.000000 0.000000 0.652084 0.513619 1.539369 1.547042 0.102027 5.933080 0.675128 0.531161 1.840151 -7.937030 -2.759741 -0.190683 -65.332963 -2.707476 4.381315 0.075345 -28.736489 0.773191 0.542633 0.637447 2.479409 7.340780 -5.830690 -0.184469 72.720549 14.051843 21.680699 0.037291 42.732402 0.016447 -0.000000 0.000000 -0.000000 6.876876 8.802289 -69.734867 5.476243 -4.786220 62.383889 0.000000 0.000000 0.000000 -5.921153 -7.746154 -64.266462 -0.039187 -0.476764 67.792375 
-0.013634 -0.008740 -0.337586 -3.275807 1.852277 -1.357977 -0.000000 0.000000 0.000000 2.603045 1.371965 17.323475 0.397571 0.465992 2.512476 0.000000 0.000000 0.000000 0.624403 0.481624 1.751212 1.632244 0.101837 6.441945 0.660114 0.491704 2.008324 -7.763883 -2.346977 -0.277963 -65.151473 -3.173789 4.052951 0.085227 -30.066522 0.736853 0.509693 0.621833 2.692113 7.915559 -5.899222 -0.192459 73.311829 15.499568 21.635180 -0.004101 43.859727 -0.010506 -0.000000 0.000000 -0.000000 6.929884 9.067142 -69.573738 5.506239 -4.688562 62.531940 0.000000 0.000000 0.000000 -6.021424 -7.796241 -64.485823 0.014062 -0.497471 68.273407 
-0.013276 -0.007997 -0.385074 -3.308081 1.765362 -1.463776 -0.000000 0.000000 0.000000 2.569732 1.270375 17.638466 0.380968 0.434999 2.617347 0.000000 0.000000 0.000000 0.622711 0.454730 1.897935 1.719878 0.078884 6.737642 0.670875 0.477637 2.139148 -7.598774 -1.856879 -0.389027 -64.881159 -3.232883 4.428018 0.097142 -31.186041 0.742599 0.502109 0.600899 2.802991 8.243630 -5.786159 -0.140818 73.427727 16.386271 21.502221 0.019522 44.012889 0.013385 -0.000000 0.000000 -0.000000 7.002588 9.221287 -69.497771 5.554739 -4.643715 62.759376 0.000000 0.000000 -0.000000 -6.049977 -7.817369 -64.590040 0.027880 -0.491569 68.491662 
